<!-- This Source Code Form is subject to the terms of the Mozilla Public
   - License, v. 2.0. If a copy of the MPL was not distributed with this
   - file, You can obtain one at http://mozilla.org/MPL/2.0/. -->
<svg xmlns="http://www.w3.org/2000/svg" width="120" height="120" fill="none"><circle cx="53.455" cy="53.455" r="53.455" fill="url(#a)" fill-opacity=".15" style="mix-blend-mode:multiply" transform="matrix(-1 0 0 1 113.433 6.806)"/><mask id="b" width="120" height="120" x="-2" y="0" maskUnits="userSpaceOnUse" style="mask-type:alpha"><path fill="#d9d9d9" d="M112.866 60.687c0 29.444-23.87 53.313-53.313 53.313-23.45 0-43.363-15.14-50.5-36.178H-1.8V51.165h8.04V0h106.626z"/></mask><g mask="url(#b)"><path fill="url(#c)" d="M1.181 60.414c.229-2.862 6.597-3.58 9.361-7.787.864-1.32 1.093-3.49 1.1-5.862 0-2.071-.17-4.29-.244-6.222-.18-4.55.008-7.044-.032-14.742-.041-6.107.717-12.875 3.53-14.465 2.61-1.475 6.817 1.395 12.793 6.89 3.335 3.066 5.52 5.716 7.804 7.608.138.114.277.236.415.342.139.106 3.556-.782 5.561-1.182.432-.09.693-.587.913-1.484.49-1.998.742-5.993 2.137-11.831C46.256 4.414 48.612.867 52.02.573 54.89.33 59.872 7.561 63.713 13.62c3.18 5.014 3.416 5.528 4.656 7.33.905 1.313 1.94 2.878 3.066 4.435 2.323 3.221 4.99 6.434 7.558 7.453 4.835 1.916 8.57-.669 10.372 1.566 1.728 2.144-.147 2.535-.538 2.902C78.47 39.924 75.984 53.72 71.198 52.521c-4.085-1.019-6.776 3.319-15.182 4.37-8.366 1.044-9.32 5.553-15.599 4.387-13.2-2.454-24.24-3.057-37.059 1.607.653-1.003-2.315-.628-2.168-2.47z"/><path fill="url(#d)" d="M22.357 34.567c-4.338 5.031-8.814 10.119-10.722 12.198 0-2.07-.172-4.289-.245-6.221-.18-4.55.008-7.045-.033-14.742-.04-6.107.718-12.875 3.53-14.465 2.61-1.476 6.817 1.394 12.794 6.89 3.335 3.066 5.52 5.716 7.803 7.607-2.723.979-8.643 3.547-13.127 8.741z"/><path fill="url(#e)" d="M42.374 23.51c.489-1.998.742-5.993 2.136-11.831C46.247 4.414 48.603.867 52.012.573c2.87-.244 7.852 6.988 11.692 13.047 3.18 5.014 3.417 5.528 4.656 7.33.905 1.313 1.94 2.878 3.066 4.435-3.286-.546-9.165-1.59-14.913-2.666-5.667-1.052-10.943-.098-14.14.783z"/><path fill="url(#f)" d="M3.35 62.893c12.467-4.534 23.377-4.085 36.276-1.745 1.297.236 2.357.448 3.784.26-2.887 3.075 5.512 11.025 15.508 9.117 3.408-.652 6.164-1.696 8.366-2.976 7.38-4.297 8.219-11.106 5.536-14.58-.114-.154-.244-.31-.375-.472 4.06-1.166 6.964-12.802 16.39-15.182-.082.081-.098.154 0 .244.929.88 4.859-.823 5.83 1.72.798 2.08-3.425 2.463-3.115 3.433.424 1.321 3.457.987 3.856 2.316.677 2.226-.766 2.087-4.452 5.422-1.859 1.68-4.28 4.24-7.29 8.431-4.794 6.67-5.12 21.95-4.525 32.444.294 5.251 2.969 16.936 3.278 23.092.318 6.343-.342 12.051-.505 17.074-.041 2.47 0 5.903.579 8.341 1.435 7.233 5.707 8.39 7.265 17.898 2.34 14.301-13.226 19.675-13.055 19.724.033.008.09.024.147.032-.799.098-1.573.188-2.323.278-3.4.415-6.352.807-8.896 1.166-.979.138-2.023.269-2.895.399.261 1.566.677 3.376 1.076 4.55.563 1.639 1.142 4.623.326 5.993-1.63 2.756-11.75 2.34-12.222-.913-.228-1.59-.383-3.531-.473-5.732v.024c-1.15-.049-1.223-.032-1.973 0-.008.326-.13 3.351-.473 5.7-.473 3.253-10.592 3.669-12.223.913-.807-1.362-.236-4.346.327-5.993.26-.767.538-1.859.782-2.976-1.272-.261-15.965-3.262-17.196-3.458q-.024-.085-.245-.171c-6.735-2.324-14.375-12.638-10.844-22.268 2.022-5.512 5.765-8.129 7.86-11.815 4.346-7.623 1.027-9.409 2.944-29.761.831-8.863 3.155-19.308 4.1-24.714 1.876-10.73-.553-10.665-6.873-12.427-8.162-2.275-10.942-.84-12.043-3.392-.522-1.206 1.427-2.054.995-3.285-.669-1.941-6.124-.327-6.523-2.34-.514-2.585 2.682-3.409 3.318-4.38z"/><path fill="url(#g)" d="M3.35 62.893c12.467-4.534 23.377-4.085 36.276-1.745 1.297.236 2.357.448 3.784.26-2.887 3.075 5.512 11.025 15.508 9.117 3.408-.652 6.164-1.696 8.366-2.976 7.38-4.297 8.219-11.106 5.536-14.58-.114-.154-.244-.31-.375-.472 4.06-1.166 6.964-12.802 16.39-15.182-.082.081-.098.154 0 .244.929.88 4.859-.823 5.83 1.72.798 2.08-3.425 2.463-3.115 3.433.424 1.321 3.457.987 3.856 2.316.677 2.226-.766 2.087-4.452 5.422-1.859 1.68-4.28 4.24-7.29 8.431-4.794 6.67-5.12 21.95-4.525 32.444.294 5.251 2.969 16.936 3.278 23.092.318 6.343-.342 12.051-.505 17.074-.041 2.47 0 5.903.579 8.341 1.435 7.233 5.707 8.39 7.265 17.898 2.34 14.301-13.226 19.675-13.055 19.724.033.008.09.024.147.032-.799.098-1.573.188-2.323.278-3.4.415-6.352.807-8.896 1.166-.979.138-2.023.269-2.895.399.261 1.566.677 3.376 1.076 4.55.563 1.639 1.142 4.623.326 5.993-1.63 2.756-11.75 2.34-12.222-.913-.228-1.59-.383-3.531-.473-5.732v.024c-1.15-.049-1.223-.032-1.973 0-.008.326-.13 3.351-.473 5.7-.473 3.253-10.592 3.669-12.223.913-.807-1.362-.236-4.346.327-5.993.26-.767.538-1.859.782-2.976-1.272-.261-15.965-3.262-17.196-3.458q-.024-.085-.245-.171c-6.735-2.324-14.375-12.638-10.844-22.268 2.022-5.512 5.765-8.129 7.86-11.815 4.346-7.623 1.027-9.409 2.944-29.761.831-8.863 3.155-19.308 4.1-24.714 1.876-10.73-.553-10.665-6.873-12.427-8.162-2.275-10.942-.84-12.043-3.392-.522-1.206 1.427-2.054.995-3.285-.669-1.941-6.124-.327-6.523-2.34-.514-2.585 2.682-3.409 3.318-4.38z" opacity=".6"/><path fill="url(#h)" d="M76.694 177.478q-.098-.022-.147-.032c-.171-.049 15.403-5.423 13.054-19.724-1.035-6.328-3.335-9.035-5.414-12.72a5 5 0 0 1-.318-.669c-.212-.538-.522-1.419-.75-2.063 1.606-.326 3.58-.832 6.384-1.949 25.408-10.151 26.402-35.966 24.731-60.974-1.297-19.316 20.115-27.568 20.115-27.568s-5.976 10.152 4.485 19.545c12.1 10.869 23.752 26.402 23.254 49.754-.024 1.093-.228 3.89-.228 3.89s.807-.392 1.867-1.492c1.362-1.411 1.9-2.308 1.9-2.308s.441 6.662-2.691 16.813c-4.663 15.117-14.35 28.384-29.264 37.516-14.53 8.896-26.32 9.426-47.691 9.458 0-.815-.359-1.802-1.386-3.066-2.92-3.571-6.923-4.215-7.901-4.419z"/><path fill="url(#i)" d="M51.31 89.075s10.707 7.917 7.828 26.402c-2.307 14.799-4.207 18.223-5.658 27.616a2093 2093 0 0 0-3.017 20.238s-1.313-10.486-3.082-20.482c-1.264-7.143-3.8-16.756-5.154-28.31-2.185-18.607 9.092-25.473 9.092-25.473z" opacity=".6"/><path fill="#ffc635" d="M61.805 47.555c-6.14.824-10.51 10.307-17.343 13.144-5.455 2.267 3.555 11.905 14.448 9.826C73.58 67.728 76.392 57.6 72.804 52.969c-1.924-2.486-5.846-6.107-11.007-5.414z"/><path fill="#00073a" d="M62.14 49.097c2.234-.702 3.742-.131 4.37.652.774.962.53 3.547-2.218 4.411-2.61.824-4.77-.848-4.803-2.169-.024-.938.677-2.275 2.65-2.895"/><path fill="url(#j)" d="M38.468 43.29c-2.682.727-3.693 2.953-1.533 7.87 1.696 3.864 3.368 3.701 5.904 2.992 1.32-.375 2.984-2.357 1.696-5.308-1.745-4.028-3.254-6.311-6.067-5.553"/><path fill="#fff" d="M40.294 46.903c.27.653 1.02 1.02 1.672.824s.962-.889.693-1.541c-.27-.653-1.02-1.02-1.672-.824s-.962.889-.693 1.541"/><path fill="url(#k)" d="M60.859 34.355c-3.53.782-3.286 3.84-1.109 8.39 1.362 2.846 2.992 2.797 5.512 2.087 1.313-.367 3.107-1.777 1.264-5.683-1.492-3.172-3.441-5.292-5.667-4.803z"/><path fill="#fff" d="M62.066 38.13c.277.668 1.043 1.052 1.712.848s.986-.913.71-1.582c-.278-.669-1.044-1.052-1.713-.848s-.987.913-.71 1.582"/></g><defs><linearGradient id="a" x1="117.707" x2="108.412" y1="12.901" y2="108.691" gradientUnits="userSpaceOnUse"><stop stop-color="#945af2"/><stop offset=".712" stop-color="#f37e49"/></linearGradient><linearGradient id="c" x1="29.72" x2="59.913" y1="-.601" y2="92.116" gradientUnits="userSpaceOnUse"><stop offset=".17" stop-color="#f60"/><stop offset=".54" stop-color="#ff9c00"/><stop offset=".9" stop-color="#ff6700"/><stop offset=".91" stop-color="#f60"/></linearGradient><linearGradient id="d" x1="21.563" x2="5.426" y1="33.263" y2="7.705" gradientUnits="userSpaceOnUse"><stop stop-color="#f60" stop-opacity="0"/><stop offset=".11" stop-color="#f60" stop-opacity=".3"/><stop offset=".23" stop-color="#f60" stop-opacity=".6"/><stop offset=".32" stop-color="#f60" stop-opacity=".82"/><stop offset=".4" stop-color="#f60" stop-opacity=".95"/><stop offset=".43" stop-color="#f60"/><stop offset=".72" stop-color="#fd4737"/><stop offset="1" stop-color="#fb2872"/></linearGradient><linearGradient id="e" x1="56.772" x2="53.187" y1="22.276" y2="-7.796" gradientUnits="userSpaceOnUse"><stop stop-color="#f60" stop-opacity="0"/><stop offset=".03" stop-color="#f60" stop-opacity=".17"/><stop offset=".07" stop-color="#f60" stop-opacity=".36"/><stop offset=".11" stop-color="#f60" stop-opacity=".53"/><stop offset=".15" stop-color="#f60" stop-opacity=".68"/><stop offset=".2" stop-color="#f60" stop-opacity=".8"/><stop offset=".24" stop-color="#f60" stop-opacity=".89"/><stop offset=".29" stop-color="#f60" stop-opacity=".95"/><stop offset=".35" stop-color="#f60" stop-opacity=".99"/><stop offset=".42" stop-color="#f60"/><stop offset=".7" stop-color="#fd4737"/><stop offset=".97" stop-color="#fb2872"/></linearGradient><linearGradient id="f" x1="47.764" x2="47.764" y1="34.485" y2="201.157" gradientUnits="userSpaceOnUse"><stop stop-color="#f60"/><stop offset=".01" stop-color="#ff7408"/><stop offset=".04" stop-color="#ff8a14"/><stop offset=".07" stop-color="#ff9b1d"/><stop offset=".11" stop-color="#ffa724"/><stop offset=".17" stop-color="#ffae27"/><stop offset=".33" stop-color="#ffb029"/><stop offset=".46" stop-color="#ff9218"/><stop offset=".63" stop-color="#f60"/><stop offset=".64" stop-color="#fe5d0f"/><stop offset=".69" stop-color="#fd4a32"/><stop offset=".74" stop-color="#fc3b4e"/><stop offset=".79" stop-color="#fb3062"/><stop offset=".84" stop-color="#fb2a6e"/><stop offset=".89" stop-color="#fb2872"/></linearGradient><linearGradient id="g" x1="47.764" x2="47.764" y1="34.485" y2="201.157" gradientUnits="userSpaceOnUse"><stop stop-color="#ffeb49" stop-opacity=".8"/><stop offset=".23" stop-color="#ffc836" stop-opacity=".59"/><stop offset=".6" stop-color="#ff9319" stop-opacity=".28"/><stop offset=".87" stop-color="#ff7207" stop-opacity=".08"/><stop offset="1" stop-color="#f60" stop-opacity="0"/></linearGradient><linearGradient id="h" x1="161.028" x2="96.614" y1="61.539" y2="189.391" gradientUnits="userSpaceOnUse"><stop stop-color="#ffeb49"/><stop offset=".45" stop-color="#f60"/><stop offset=".53" stop-color="#fe6009"/><stop offset=".68" stop-color="#fd5322"/><stop offset=".86" stop-color="#fc3c4c"/><stop offset="1" stop-color="#fb2872"/></linearGradient><linearGradient id="i" x1="51.001" x2="47.813" y1="104.868" y2="175.024" gradientUnits="userSpaceOnUse"><stop stop-color="#ffeb49"/><stop offset=".09" stop-color="#ffe847" stop-opacity=".96"/><stop offset=".24" stop-color="#ffe143" stop-opacity=".84"/><stop offset=".44" stop-color="#ffd63d" stop-opacity=".66"/><stop offset=".67" stop-color="#ffc735" stop-opacity=".4"/><stop offset=".94" stop-color="#ffb42b" stop-opacity=".07"/><stop offset="1" stop-color="#ffb029" stop-opacity="0"/></linearGradient><linearGradient id="j" x1="38.411" x2="41.518" y1="39.516" y2="54.339" gradientUnits="userSpaceOnUse"><stop offset=".16" stop-color="#a030b9"/><stop offset=".88" stop-color="#00073a"/></linearGradient><linearGradient id="k" x1="60.623" x2="63.713" y1="31.452" y2="43.813" gradientUnits="userSpaceOnUse"><stop offset=".16" stop-color="#a030b9"/><stop offset=".88" stop-color="#00073a"/></linearGradient></defs></svg>
