<!-- This Source Code Form is subject to the terms of the Mozilla Public
   - License, v. 2.0. If a copy of the MPL was not distributed with this
   - file, You can obtain one at https://mozilla.org/MPL/2.0/. -->
<svg width="320" height="175" viewBox="0 0 320 175" fill="none" xmlns="http://www.w3.org/2000/svg">
<rect width="320" height="175" fill="#3a0f6e"/>
<path fill-rule="evenodd" clip-rule="evenodd" d="M128.521 48.4238H133.236L140.074 60.6289L146.893 48.4238H151.647V69.9543H146.893V56.605L140.074 68.7909L133.236 56.5097V69.859H128.521V48.4238Z" fill="white"/>
<path fill-rule="evenodd" clip-rule="evenodd" d="M168.393 61.7358C168.307 59.1927 166.177 57.2012 163.637 57.2879C161.097 57.3745 159.108 59.5065 159.194 62.0496C159.279 64.5382 161.323 66.5094 163.811 66.5001C166.382 66.4258 168.424 64.3111 168.413 61.7358H168.393ZM154.686 61.7356C154.688 56.7005 158.767 52.6207 163.796 52.623C168.822 52.6254 172.896 56.7039 172.898 61.7356C172.896 66.7708 168.817 70.8506 163.788 70.8482C158.761 70.8459 154.688 66.7674 154.686 61.7356V61.7356Z" fill="white"/>
<path fill-rule="evenodd" clip-rule="evenodd" d="M174.541 66.8326L182.923 57.4607H174.756V53.4414H189.052V56.7744L180.671 66.1463H189.131V70.0676H174.541V66.8326Z" fill="white"/>
<mask id="logoMask" style="mask-type:luminance" maskUnits="userSpaceOnUse" x="40" y="46" width="240" height="83">
<path fill-rule="evenodd" clip-rule="evenodd" d="M40.8047 128.965H279.196V46.0332H40.8047V128.965Z" fill="white"/>
</mask>
<g mask="url(#logoMask)">
<path fill-rule="evenodd" clip-rule="evenodd" d="M191.641 70.146H196.36V53.4414H191.641V70.146ZM191.426 48.5794C191.427 47.1717 192.568 46.0318 193.974 46.0332C195.378 46.0347 196.516 47.1738 196.517 48.5794C196.519 49.987 195.38 51.1294 193.974 51.1309C192.568 51.1323 191.427 49.9922 191.426 48.5846V48.5794Z" fill="white"/>
<path fill-rule="evenodd" clip-rule="evenodd" d="M199.648 70.147H204.348V47.5801H199.648V70.147Z" fill="white"/>
<path fill-rule="evenodd" clip-rule="evenodd" d="M207.676 70.147H212.396V47.5801H207.676V70.147Z" fill="white"/>
<path fill-rule="evenodd" clip-rule="evenodd" d="M225.906 64.8932V63.3443C224.758 62.9264 223.545 62.7139 222.323 62.7168C220.619 62.7168 219.268 63.7168 219.268 65.0892C219.268 66.4618 220.462 67.2851 222.068 67.2851C223.748 67.4829 225.342 66.4901 225.906 64.8932M230.452 60.1688V70.1485H225.909V68.4819C224.635 69.8221 222.86 70.5685 221.013 70.5406C217.449 70.5406 214.707 68.4036 214.707 65.2078C214.707 62.0119 217.782 59.6591 221.659 59.6591C223.115 59.679 224.555 59.9645 225.909 60.5022V60.1688C225.909 58.3847 224.812 56.8358 221.992 56.8358C220.476 56.8934 218.995 57.303 217.664 58.0318L216.078 54.9144C218.223 53.7561 220.613 53.1244 223.05 53.0714C226.775 52.72 230.08 55.4591 230.431 59.1893C230.462 59.5148 230.469 59.8422 230.452 60.1688" fill="white"/>
<path fill-rule="evenodd" clip-rule="evenodd" d="M181.845 78.4395L161.322 128.965H149.2L128.637 78.4395H140.837L155.31 114.045L169.782 78.4395H181.845Z" fill="white"/>
<path fill-rule="evenodd" clip-rule="evenodd" d="M207.56 102.635C212.926 102.635 216.608 99.8507 216.608 95.498C216.608 91.1455 212.926 88.3613 207.56 88.3613H196.828V102.635L207.56 102.635ZM186.018 78.4414H208.715C219.662 78.4414 227.75 85.4998 227.75 95.4989C227.75 105.498 219.662 112.576 208.715 112.576H196.828V128.967H186.018V78.4414Z" fill="white"/>
<path fill-rule="evenodd" clip-rule="evenodd" d="M233.193 78.4395H243.984L268.307 111.104V78.4395H279.195V128.965H268.307L243.984 96.3008V128.965H233.193V78.4395Z" fill="white"/>
<path fill-rule="evenodd" clip-rule="evenodd" d="M107.939 90.9684C106.547 94.2826 102.736 95.8402 99.4256 94.4474C98.252 93.9537 97.249 93.1256 96.5409 92.0663C95.3251 90.2358 95.1046 87.9177 95.9534 85.8903C96.4462 84.7302 97.2619 83.7364 98.3035 83.0278C99.3762 82.294 100.647 81.9042 101.946 81.9103C102.814 81.9049 103.674 82.0784 104.472 82.42C106.863 83.4513 108.405 85.8139 108.389 88.4196C108.413 89.291 108.26 90.1581 107.939 90.9684V90.9684ZM81.579 117.357C80.185 120.67 76.3722 122.224 73.063 120.828C73.0621 120.828 73.0611 120.828 73.0602 120.827C71.9094 120.32 70.9251 119.498 70.2205 118.455C68.2196 115.457 69.0252 111.402 72.0199 109.399C73.0873 108.685 74.3418 108.302 75.6256 108.299C76.4595 108.3 77.2846 108.467 78.0541 108.789C80.4443 109.82 81.9866 112.183 81.9707 114.788C82.0161 115.662 81.8827 116.536 81.579 117.357V117.357ZM60.9562 90.9684C59.565 94.2826 55.7535 95.8402 52.4431 94.4474C51.2695 93.9537 50.2665 93.1256 49.5585 92.0663C48.3427 90.2358 48.1221 87.9177 48.9711 85.8903C49.4637 84.7302 50.2796 83.7364 51.3211 83.0278C52.3938 82.294 53.6643 81.9042 54.9635 81.9103C55.8317 81.9049 56.6916 82.0784 57.4899 82.42C59.8801 83.4513 61.4224 85.8139 61.4065 88.4196C61.4306 89.291 61.2773 90.1581 60.9562 90.9684V90.9684ZM75.3324 59.4997C75.8252 58.3395 76.6408 57.3458 77.6823 56.6373C79.5227 55.3751 81.8809 55.1456 83.9296 56.0294C86.3198 57.0607 87.8622 59.4233 87.8463 62.029C87.8463 65.6271 84.9385 68.547 81.3445 68.5578C79.1648 68.5621 77.1279 67.4727 75.9199 65.6562C74.704 63.8256 74.4835 61.5075 75.3324 59.4801V59.4997ZM114.948 82.9296C112.742 77.6969 107.618 74.2975 101.945 74.3029C97.2339 74.2668 92.8197 76.6018 90.1945 80.5181C89.3559 81.7736 88.7274 83.1577 88.3341 84.6158H68.5351C68.396 84.038 68.2059 83.4738 67.9671 82.9296C67.7532 82.3969 67.491 81.8851 67.1837 81.4004L74.2731 74.3029C76.4129 75.5303 78.8375 76.1726 81.3035 76.1654C83.1882 76.17 85.0541 75.7897 86.787 75.0479C92.0178 72.8409 95.42 67.7124 95.4234 62.0294C95.4373 57.3136 93.1016 52.9013 89.1957 50.2655C86.8817 48.7008 84.1548 47.8613 81.3624 47.8539C76.6515 47.818 72.2373 50.1528 69.6122 54.0691C68.0578 56.39 67.22 59.1175 67.2035 61.9117C67.1533 63.8666 67.5137 65.8102 68.2609 67.6172C68.4528 68.0663 68.6686 68.5047 68.9071 68.9308L61.7788 76.0478C59.6908 74.899 57.3461 74.2988 54.9636 74.3029C50.2527 74.2668 45.8387 76.6018 43.2135 80.5181C41.659 82.839 40.8213 85.5663 40.8047 88.3606C40.8003 90.2538 41.1801 92.1282 41.9209 93.8699C42.989 96.3927 44.7643 98.5516 47.0323 100.085C49.3453 101.652 52.0729 102.492 54.8657 102.497C59.5759 102.511 63.9831 100.172 66.6159 96.2619C67.4997 95.0264 68.1623 93.6465 68.5743 92.1839H88.3537C88.5082 92.7594 88.7045 93.323 88.9412 93.8699C89.1331 94.319 89.3489 94.7575 89.5874 95.1835L82.4003 102.379C80.3132 101.228 77.968 100.627 75.5851 100.634C70.8742 100.598 66.4601 102.933 63.8351 106.849C62.2807 109.17 61.4428 111.898 61.4262 114.692C61.4219 116.585 61.8016 118.46 62.5424 120.201C63.6162 122.721 65.3905 124.878 67.6538 126.416C74.1404 130.769 82.9234 129.034 87.2715 122.54C88.8333 120.207 89.6668 117.461 89.6658 114.653C89.6606 112.767 89.2812 110.901 88.5495 109.163C88.3145 108.634 88.0599 108.104 87.7857 107.614L94.8555 100.536C96.9953 101.764 99.4199 102.406 101.886 102.399C109.675 102.377 115.984 96.0608 116.006 88.2626C115.999 86.4334 115.64 84.6227 114.948 82.9296V82.9296Z" fill="white"/>
</g>
</svg>